<svg version="1.1" id="Layer_1" xmlns="http://www.w3.org/2000/svg" xmlns:xlink="http://www.w3.org/1999/xlink" x="0px" y="0px"
	 width="100%" viewBox="0 0 177 177" enable-background="new 0 0 177 177" xml:space="preserve">
<path fill="#FDFDFD" opacity="1.000000" stroke="none" 
	d="
M109.000000,178.000000 
	C72.666672,178.000000 36.833336,178.000000 1.000005,178.000000 
	C1.000003,119.000008 1.000003,60.000011 1.000002,1.000013 
	C59.999989,1.000008 118.999977,1.000008 177.999969,1.000004 
	C177.999985,59.999989 177.999985,118.999977 178.000000,177.999985 
	C155.166672,178.000000 132.333328,178.000000 109.000000,178.000000 
M47.606297,113.102409 
	C45.356125,115.326599 42.963356,117.425613 40.881260,119.797356 
	C33.182251,128.567352 31.575809,140.829407 36.650600,151.034378 
	C41.132179,160.046417 50.635521,164.922150 62.849586,163.325928 
	C68.515320,162.585480 74.094124,160.391129 79.440453,158.194229 
	C86.178078,155.425659 92.604507,155.255936 99.280792,158.149338 
	C103.397446,159.933426 107.591187,161.698578 111.921036,162.802826 
	C126.632317,166.554688 139.853683,160.228271 143.629440,147.655823 
	C146.944031,136.619003 145.423386,126.383705 136.704697,118.265533 
	C129.011551,111.102272 121.411522,103.955475 116.080147,94.747993 
	C115.340416,93.470444 114.216873,92.402557 113.207306,91.295715 
	C99.887825,76.692993 80.854904,76.160835 66.973640,90.189224 
	C63.954372,93.240479 61.649475,96.986877 58.877293,100.297325 
	C55.377045,104.477211 51.735104,108.538445 47.606297,113.102409 
M49.306374,58.966446 
	C51.757576,62.262432 53.713413,66.138161 56.758030,68.739662 
	C64.229622,75.123833 75.867836,73.127106 81.282021,65.064148 
	C87.708908,55.493042 86.759079,38.749855 79.290001,29.949980 
	C70.801216,19.948700 57.719112,20.975784 51.046787,32.302742 
	C46.183685,40.558365 45.958252,49.300972 49.306374,58.966446 
M125.863304,65.314018 
	C133.339722,54.766853 134.007156,41.435749 127.548454,31.655764 
	C120.202988,20.533009 106.731209,20.130554 98.882141,30.930660 
	C92.996971,39.028481 92.195686,48.217010 94.557961,57.577862 
	C98.576767,73.502983 113.783073,77.474266 125.863304,65.314018 
M32.769711,60.392654 
	C25.859224,59.173561 20.361734,61.503601 16.203188,67.069542 
	C8.581448,77.270737 11.090983,94.030640 21.329838,101.491684 
	C29.137043,107.180786 40.594204,105.342896 45.471581,97.361031 
	C52.277561,86.222984 48.690453,65.093811 32.769711,60.392654 
M130.868057,90.424362 
	C133.246094,99.387627 137.666748,103.704407 145.380478,104.595772 
	C153.035172,105.480316 159.764389,101.835709 163.809219,94.443604 
	C167.399521,87.882172 168.204605,80.926407 166.013474,73.763443 
	C163.819748,66.592026 159.473389,61.346699 151.677414,60.265621 
	C143.842087,59.179081 138.223450,63.142189 134.249573,69.466949 
	C130.380493,75.624931 129.540634,82.471802 130.868057,90.424362 
z"/>
<path fill="#020202" opacity="1.000000" stroke="none" 
	d="
M47.880287,112.876633 
	C51.735104,108.538445 55.377045,104.477211 58.877293,100.297325 
	C61.649475,96.986877 63.954372,93.240479 66.973640,90.189224 
	C80.854904,76.160835 99.887825,76.692993 113.207306,91.295715 
	C114.216873,92.402557 115.340416,93.470444 116.080147,94.747993 
	C121.411522,103.955475 129.011551,111.102272 136.704697,118.265533 
	C145.423386,126.383705 146.944031,136.619003 143.629440,147.655823 
	C139.853683,160.228271 126.632317,166.554688 111.921036,162.802826 
	C107.591187,161.698578 103.397446,159.933426 99.280792,158.149338 
	C92.604507,155.255936 86.178078,155.425659 79.440453,158.194229 
	C74.094124,160.391129 68.515320,162.585480 62.849586,163.325928 
	C50.635521,164.922150 41.132179,160.046417 36.650600,151.034378 
	C31.575809,140.829407 33.182251,128.567352 40.881260,119.797356 
	C42.963356,117.425613 45.356125,115.326599 47.880287,112.876633 
z"/>
<path fill="#050505" opacity="1.000000" stroke="none" 
	d="
M49.156574,58.603607 
	C45.958252,49.300972 46.183685,40.558365 51.046787,32.302742 
	C57.719112,20.975784 70.801216,19.948700 79.290001,29.949980 
	C86.759079,38.749855 87.708908,55.493042 81.282021,65.064148 
	C75.867836,73.127106 64.229622,75.123833 56.758030,68.739662 
	C53.713413,66.138161 51.757576,62.262432 49.156574,58.603607 
z"/>
<path fill="#040404" opacity="1.000000" stroke="none" 
	d="
M125.628738,65.587196 
	C113.783073,77.474266 98.576767,73.502983 94.557961,57.577862 
	C92.195686,48.217010 92.996971,39.028481 98.882141,30.930660 
	C106.731209,20.130554 120.202988,20.533009 127.548454,31.655764 
	C134.007156,41.435749 133.339722,54.766853 125.628738,65.587196 
z"/>
<path fill="#050505" opacity="1.000000" stroke="none" 
	d="
M33.157440,60.514870 
	C48.690453,65.093811 52.277561,86.222984 45.471581,97.361031 
	C40.594204,105.342896 29.137043,107.180786 21.329838,101.491684 
	C11.090983,94.030640 8.581448,77.270737 16.203188,67.069542 
	C20.361734,61.503601 25.859224,59.173561 33.157440,60.514870 
z"/>
<path fill="#050505" opacity="1.000000" stroke="none" 
	d="
M130.820236,90.009796 
	C129.540634,82.471802 130.380493,75.624931 134.249573,69.466949 
	C138.223450,63.142189 143.842087,59.179081 151.677414,60.265621 
	C159.473389,61.346699 163.819748,66.592026 166.013474,73.763443 
	C168.204605,80.926407 167.399521,87.882172 163.809219,94.443604 
	C159.764389,101.835709 153.035172,105.480316 145.380478,104.595772 
	C137.666748,103.704407 133.246094,99.387627 130.820236,90.009796 
z"/>
</svg>